<svg xmlns="http://www.w3.org/2000/svg" viewBox="0 0 184 188">
  <defs>
    <style>
      .cls-1, .cls-2 {
        fill: #fff;
        font-family: HelveticaNeue, Helvetica Neue;
      }

      .cls-1 {
        font-size: 100px;
      }

      .cls-2 {
        font-size: 90px;
      }

      .cls-3, .cls-4 {
        fill: rgba(255,255,255,0.17);
      }
    </style>
  </defs>
  <g id="Group_3" data-name="Group 3" transform="translate(-326 -229)">
    <rect id="Rectangle_1" data-name="Rectangle 1" width="184" height="188" rx="92" transform="translate(326 229)"/>
    <g id="Group_1" data-name="Group 1" transform="translate(-6 11)">
      <g id="Group_2" data-name="Group 2">
        <text id="F" class="cls-1" transform="translate(397 355)"><tspan x="0" y="0">F</tspan></text>
        <text id="T" class="cls-2" transform="translate(416 379)"><tspan x="0" y="0">T</tspan></text>
      </g>
      <path id="Subtraction_1" data-name="Subtraction 1" class="cls-3" d="M71.5,132.461a63.063,63.063,0,0,1-25.884-5.519,65.475,65.475,0,0,1-11.3-6.475,67.92,67.92,0,0,1-9.842-8.576,70.056,70.056,0,0,1-8.12-10.394,71.563,71.563,0,0,1-6.131-11.93,74.114,74.114,0,0,1,0-54.674,71.563,71.563,0,0,1,6.131-11.93,70.056,70.056,0,0,1,8.12-10.394,67.92,67.92,0,0,1,9.842-8.576,65.475,65.475,0,0,1,11.3-6.475A63.063,63.063,0,0,1,71.5-8a64.04,64.04,0,0,1,6.657.348A64.91,64.91,0,0,0,59.648,2.226,68.685,68.685,0,0,0,45.037,17.457a71.388,71.388,0,0,0-9.59,19.4,74.27,74.27,0,0,0,1.179,48.163,70.7,70.7,0,0,0,12.7,21.489,65.142,65.142,0,0,0,42.523,22.608A63.232,63.232,0,0,1,71.5,132.461Z" transform="translate(345 249.539)"/>
      <path id="Subtraction_2" data-name="Subtraction 2" class="cls-4" d="M71.5,132.461a63.063,63.063,0,0,1-25.884-5.519,65.475,65.475,0,0,1-11.3-6.475,67.92,67.92,0,0,1-9.842-8.576,70.056,70.056,0,0,1-8.12-10.394,71.563,71.563,0,0,1-6.131-11.93,74.114,74.114,0,0,1,0-54.674,71.563,71.563,0,0,1,6.131-11.93,70.056,70.056,0,0,1,8.12-10.394,67.92,67.92,0,0,1,9.842-8.576,65.475,65.475,0,0,1,11.3-6.475A63.063,63.063,0,0,1,71.5-8a64.04,64.04,0,0,1,6.657.348A64.91,64.91,0,0,0,59.648,2.226,68.685,68.685,0,0,0,45.037,17.457a71.388,71.388,0,0,0-9.59,19.4,74.27,74.27,0,0,0,1.179,48.163,70.7,70.7,0,0,0,12.7,21.489,65.142,65.142,0,0,0,42.523,22.608A63.232,63.232,0,0,1,71.5,132.461Z" transform="translate(488.653 236.347) rotate(90)"/>
    </g>
  </g>
</svg>
